<?xml version="1.0" standalone="no"?>
<!DOCTYPE svg PUBLIC "-//W3C//DTD SVG 1.1//EN" "http://www.w3.org/Graphics/SVG/1.1/DTD/svg11.dtd" >
<svg>
<metadata>
Created by FontForge 20110222 at Wed Jul 24 13:19:57 2013
 By Ubuntu
[c] Copyright 1999, Tobias Frere-Jones. Designed by Tobias Frere-Jones. Produced by The Font Bureau, Inc. All rights reserved.
</metadata>
<defs>
<font id="Interstate-ExtraLight" horiz-adv-x="720" >
  <font-face 
    font-family="Interstate ExtraLight"
    font-weight="500"
    font-stretch="normal"
    units-per-em="1000"
    panose-1="0 0 0 0 0 0 0 0 0 0"
    ascent="800"
    descent="-200"
    x-height="525"
    cap-height="700"
    bbox="-44 -196 1233 897"
    underline-thickness="20"
    underline-position="-123"
    unicode-range="U+0020-FB02"
  />
<missing-glyph horiz-adv-x="500" 
 />
    <glyph glyph-name=".notdef" horiz-adv-x="500" 
 />
    <glyph glyph-name=".null" horiz-adv-x="0" 
 />
    <glyph glyph-name="nonmarkingreturn" horiz-adv-x="333" 
 />
    <glyph glyph-name="space" unicode=" " horiz-adv-x="251" 
 />
    <glyph glyph-name="exclam" unicode="!" horiz-adv-x="244" 
d="M144 371l-10 -208h-25l-10 208v329h45v-329zM159 31q0 -15 -11.5 -26t-25.5 -11q-15 0 -26 11t-11 26t11 26.5t26 11.5q14 0 25.5 -11.5t11.5 -26.5z" />
    <glyph glyph-name="quotedbl" unicode="&#x22;" horiz-adv-x="441" 
d="M346 700l-9 -272h-36l-9 272h54zM149 700l-10 -272h-35l-10 272h55z" />
    <glyph glyph-name="numbersign" unicode="#" horiz-adv-x="658" 
d="M603 194h-126v-194h-45v194h-206v-194h-44v194h-127v42h127v228h-127v41h127v195h44v-195h206v195h45v-195h126v-41h-126v-228h126v-42zM432 236v228h-206v-228h206z" />
    <glyph glyph-name="dollar" unicode="$" horiz-adv-x="568" 
d="M498 179q0 -80 -54.5 -129t-142.5 -54v-96h-44v96q-114 7 -198 81l27 35q91 -75 196 -75q75 0 122.5 36t47.5 103q0 58 -38.5 93.5t-144.5 74.5q-115 43 -156 82t-41 110t49.5 117t135.5 51v96h44v-95q99 -5 184 -66l-26 -37q-83 61 -181 61q-78 0 -119 -35.5t-41 -89.5
q0 -53 35 -84.5t141 -70.5q117 -43 160.5 -87t43.5 -117z" />
    <glyph glyph-name="percent" unicode="%" horiz-adv-x="908" 
d="M369 502q0 -95 -42 -151.5t-113 -56.5q-70 0 -111.5 56t-41.5 151q0 97 41.5 153.5t112.5 56.5q72 0 113 -56t41 -153zM693 700l-435 -700h-44l435 700h44zM846 198q0 -96 -41.5 -152.5t-112.5 -56.5t-112 56t-41 152t41.5 152.5t112.5 56.5q72 0 112.5 -56t40.5 -152z
M328 501q0 80 -30.5 127t-82.5 47q-53 0 -83 -46t-30 -127q0 -80 30.5 -126t82.5 -46t82.5 47t30.5 124zM805 197q0 80 -30 126.5t-83 46.5q-52 0 -82 -46t-30 -126t30 -126.5t83 -46.5q52 0 82 47t30 125z" />
    <glyph glyph-name="ampersand" unicode="&#x26;" horiz-adv-x="628" 
d="M583 0h-54l-70 89q-83 -100 -202 -100q-97 0 -147.5 50t-50.5 134q0 138 164 220l-23 30q-35 46 -51.5 78t-16.5 71q0 62 45.5 100.5t117.5 38.5q102 0 182 -61l-24 -36q-76 57 -159 57q-51 0 -83.5 -26.5t-32.5 -70.5q0 -33 13 -59.5t43 -64.5l227 -292q33 54 59 146
l39 -11q-26 -98 -72 -169zM434 120l-187 243q-144 -68 -144 -189q0 -66 41.5 -105.5t113.5 -39.5q107 0 176 91z" />
    <glyph glyph-name="quotesingle" unicode="'" horiz-adv-x="241" 
d="M148 700l-9 -272h-37l-9 272h55z" />
    <glyph glyph-name="parenleft" unicode="(" horiz-adv-x="349" 
d="M280 -92l-21 -18q-185 185 -185 410q0 239 186 416l19 -18q-160 -167 -160 -395q0 -223 161 -395z" />
    <glyph glyph-name="parenright" unicode=")" horiz-adv-x="349" 
d="M275 306q0 -239 -186 -416l-19 18q160 167 160 395q0 223 -161 395l21 18q185 -185 185 -410z" />
    <glyph glyph-name="asterisk" unicode="*" horiz-adv-x="487" 
d="M415 434l-18 -32l-145 96l10 -174h-37l10 174l-145 -96l-18 32l153 78l-153 78l18 32l145 -96l-10 174h37l-10 -174l145 96l18 -32l-153 -78z" />
    <glyph glyph-name="plus" unicode="+" horiz-adv-x="573" 
d="M518 324h-210v-227h-43v227h-210v40h210v227h43v-227h210v-40z" />
    <glyph glyph-name="comma" unicode="," horiz-adv-x="211" 
d="M140 91l-44 -187h-32l17 187h59z" />
    <glyph glyph-name="hyphen" unicode="-" horiz-adv-x="317" 
d="M265 343h-214v43h214v-43z" />
    <glyph glyph-name="period" unicode="." horiz-adv-x="211" 
d="M143 32q0 -16 -11.5 -27t-26.5 -11q-16 0 -27 11t-11 27t11 28t27 12q15 0 26.5 -12t11.5 -28z" />
    <glyph glyph-name="slash" unicode="/" horiz-adv-x="414" 
d="M376 790l-294 -880h-43l293 880h44z" />
    <glyph glyph-name="zero" unicode="0" horiz-adv-x="646" 
d="M583 350q0 -169 -71 -265t-189 -96t-188.5 96t-70.5 265t70.5 265t188.5 96t189 -96t71 -265zM537 350q0 149 -56.5 234.5t-157.5 85.5t-157.5 -85.5t-56.5 -234.5t56.5 -234.5t157.5 -85.5t157.5 85.5t56.5 234.5z" />
    <glyph glyph-name="one" unicode="1" horiz-adv-x="292" 
d="M193 0h-45v626q-6 -14 -44.5 -29t-80.5 -15v38q51 2 88.5 23t46.5 59h35v-702z" />
    <glyph glyph-name="two" unicode="2" horiz-adv-x="559" 
d="M485 0h-438q5 102 55 172.5t163 150.5q102 71 134.5 112.5t32.5 98.5q0 65 -42.5 100.5t-117.5 35.5q-103 0 -178 -57l-24 32q88 66 203 66q93 0 149 -44.5t56 -129.5q0 -72 -36.5 -118.5t-145.5 -123.5q-106 -74 -147.5 -129.5t-50.5 -121.5h387v-44z" />
    <glyph glyph-name="three" unicode="3" horiz-adv-x="548" 
d="M480 195q0 -97 -63.5 -151.5t-174.5 -54.5q-56 0 -112.5 22t-87.5 54l27 33q33 -30 80.5 -49t94.5 -19q92 0 141.5 43t49.5 121t-49.5 116.5t-134.5 38.5h-45v39h46q74 0 114 37.5t40 101.5q0 67 -40 105t-121 38q-92 0 -152 -56l-28 29q27 27 76 47.5t106 20.5
q94 0 149.5 -46t55.5 -134q0 -73 -35 -111t-86 -49q61 -9 105 -52.5t44 -123.5z" />
    <glyph glyph-name="four" unicode="4" horiz-adv-x="595" 
d="M554 179h-104v-179h-42v179h-371v38l364 486h49v-485h104v-39zM408 218v428l-320 -428h320z" />
    <glyph glyph-name="five" unicode="5" horiz-adv-x="589" 
d="M529 223q0 -112 -70.5 -173t-187.5 -61q-119 0 -204 54l21 38q82 -51 187 -51q97 0 152.5 52t55.5 138q0 81 -47.5 126t-142.5 45q-103 0 -165 -55l-46 18l26 346h385v-44h-346l-20 -277q62 53 169 53q117 0 175 -56t58 -153z" />
    <glyph glyph-name="six" unicode="6" horiz-adv-x="610" 
d="M561 213q0 -102 -69 -163t-177 -61q-114 0 -180.5 66.5t-66.5 203.5q0 59 12 116.5t41 115t71.5 102.5t109 76.5t149.5 39.5v-41q-104 -12 -178.5 -65t-111 -126t-47.5 -166q23 52 79.5 83.5t135.5 31.5q103 0 167.5 -54.5t64.5 -158.5zM515 211q0 84 -53 129t-144 45
q-90 0 -146.5 -49t-56.5 -124q4 -85 57.5 -133.5t144.5 -48.5q90 0 144 51t54 130z" />
    <glyph glyph-name="seven" unicode="7" horiz-adv-x="538" 
d="M471 657q-240 -298 -251 -657h-47q13 355 246 656h-395v44h447v-43z" />
    <glyph glyph-name="eight" unicode="8" horiz-adv-x="621" 
d="M563 190q0 -97 -68.5 -149t-184.5 -52t-184 51.5t-68 148.5q0 75 45.5 121.5t125.5 61.5q-63 15 -102 54t-39 104q0 82 61 131.5t162 49.5t161.5 -49t60.5 -131q0 -64 -38.5 -103t-102.5 -54q81 -15 126 -62t45 -122zM487 530q0 62 -47 101t-130 39q-82 0 -129 -38.5
t-47 -100.5q0 -64 48.5 -102t128.5 -38q79 0 127.5 38t48.5 101zM518 189q0 74 -56 117t-152 43t-151.5 -42.5t-55.5 -116.5q0 -75 55.5 -117.5t152.5 -42.5q98 0 152.5 42t54.5 117z" />
    <glyph glyph-name="nine" unicode="9" horiz-adv-x="610" 
d="M542 441q0 -59 -12 -116.5t-41 -115t-71.5 -102.5t-109 -76.5t-149.5 -39.5v41q105 12 179 65t110.5 126t46.5 166q-23 -52 -78.5 -83.5t-135.5 -31.5q-103 0 -167.5 54.5t-64.5 158.5q0 102 69 163t177 61q114 0 180.5 -66.5t66.5 -203.5zM495 488q-4 85 -57.5 133.5
t-144.5 48.5q-90 0 -144 -51t-54 -130q0 -84 53 -129t145 -45q89 0 145.5 49t56.5 124z" />
    <glyph glyph-name="colon" unicode=":" horiz-adv-x="211" 
d="M143 491q0 -16 -11.5 -27t-26.5 -11q-16 0 -27 11t-11 27t11 28t27 12q15 0 26.5 -12t11.5 -28zM143 32q0 -16 -11.5 -27t-26.5 -11q-16 0 -27 11t-11 27t11 28t27 12q15 0 26.5 -12t11.5 -28z" />
    <glyph glyph-name="semicolon" unicode=";" horiz-adv-x="211" 
d="M143 491q0 -16 -11.5 -27t-26.5 -11q-16 0 -27 11t-11 27t11 28t27 12q15 0 26.5 -12t11.5 -28zM133 91l-45 -187h-31l16 187h60z" />
    <glyph glyph-name="less" unicode="&#x3c;" horiz-adv-x="385" 
d="M313 63l-258 261v40l258 261v-56l-223 -224l223 -225v-57z" />
    <glyph glyph-name="equal" unicode="=" horiz-adv-x="579" 
d="M495 428h-411v41h411v-41zM495 219h-411v41h411v-41z" />
    <glyph glyph-name="greater" unicode="&#x3e;" horiz-adv-x="385" 
d="M330 324l-258 -261v57l223 223l-223 225v57l258 -261v-40z" />
    <glyph glyph-name="question" unicode="?" horiz-adv-x="557" 
d="M478 546q0 -62 -26 -97.5t-95 -87.5q-53 -40 -67.5 -74.5t-14.5 -123.5h-46q0 102 19 142.5t87 89.5q56 43 76.5 72t20.5 76q0 56 -43.5 91t-114.5 35q-105 0 -191 -73l-26 33q93 82 219 82q92 0 147 -43.5t55 -121.5zM289 31q0 -15 -11.5 -26t-25.5 -11q-15 0 -26 11
t-11 26t11 26.5t26 11.5q14 0 25.5 -11.5t11.5 -26.5z" />
    <glyph glyph-name="at" unicode="@" horiz-adv-x="836" 
d="M779 360q0 -107 -39.5 -157.5t-106.5 -50.5q-37 0 -64 19.5t-37 53.5q-50 -73 -138 -73q-63 0 -104.5 32t-41.5 96q0 62 44 96.5t111 34.5q70 0 123 -32v65q0 49 -27 70t-86 21q-53 0 -110 -27l-12 28q64 30 126 30q69 0 104.5 -27.5t35.5 -92.5v-185q0 -39 20 -60.5
t60 -21.5q51 0 81.5 43.5t30.5 136.5q0 139 -93.5 231.5t-237.5 92.5q-145 0 -238 -93t-93 -239q0 -147 93 -240.5t238 -93.5q77 0 144 32l10 -26q-75 -34 -154 -34q-157 0 -259 102t-102 259t102 259t259 102t259 -102.5t102 -248.5zM526 256v93q-58 33 -126 33
q-52 0 -85.5 -27t-33.5 -73q0 -50 31 -74.5t85 -24.5q81 0 129 73z" />
    <glyph glyph-name="A" unicode="A" horiz-adv-x="664" 
d="M602 0h-48l-67 193h-311l-67 -193h-47l245 702h50zM473 235l-141 411l-142 -411h283z" />
    <glyph glyph-name="B" unicode="B" horiz-adv-x="607" 
d="M547 203q0 -99 -58.5 -151t-166.5 -52h-226v700h225q82 0 134.5 -41t52.5 -125q0 -65 -32.5 -103t-80.5 -49q61 -10 106.5 -54.5t45.5 -124.5zM462 532q0 62 -39 94t-104 32h-178v-259h176q69 0 107 35.5t38 97.5zM501 201q0 74 -50 115.5t-131 41.5h-179v-316h184
q87 0 131.5 41.5t44.5 117.5z" />
    <glyph glyph-name="C" unicode="C" horiz-adv-x="619" 
d="M559 85q-81 -96 -208 -96q-126 0 -204 100.5t-78 259.5q0 161 79 261.5t205 100.5q125 0 199 -89l-31 -32q-34 41 -73.5 60t-95.5 19q-104 0 -170.5 -88t-66.5 -230q0 -143 67 -231.5t170 -88.5q101 0 177 85z" />
    <glyph glyph-name="D" unicode="D" horiz-adv-x="661" 
d="M592 353q0 -180 -86 -266.5t-236 -86.5h-174v700h182q148 0 231 -86t83 -261zM546 351q0 153 -69 230t-203 77h-132v-616h134q270 0 270 309z" />
    <glyph glyph-name="E" unicode="E" horiz-adv-x="555" 
d="M507 0h-411v700h396v-42h-350v-264h212v-42h-212v-310h365v-42z" />
    <glyph glyph-name="F" unicode="F" horiz-adv-x="523" 
d="M481 658h-339v-276h204v-42h-204v-340h-46v700h385v-42z" />
    <glyph glyph-name="G" unicode="G" horiz-adv-x="662" 
d="M599 278q0 -139 -67 -214t-181 -75q-126 0 -204 100.5t-78 259.5q0 160 79.5 261t204.5 101q138 0 208 -95l-35 -30q-34 43 -74.5 63t-99.5 20q-105 0 -171 -88t-66 -230q0 -143 67 -231.5t170 -88.5q97 0 149.5 62t52.5 179v13h-152v42h197v-49z" />
    <glyph glyph-name="H" unicode="H" horiz-adv-x="674" 
d="M578 0h-46v344h-390v-344h-46v700h46v-314h390v314h46v-700z" />
    <glyph glyph-name="I" unicode="I" horiz-adv-x="249" 
d="M147 0h-46v700h46v-700z" />
    <glyph glyph-name="J" unicode="J" horiz-adv-x="560" 
d="M469 238q0 -249 -220 -249q-155 0 -209 146l42 18q25 -61 65 -91.5t104 -30.5q172 0 172 208v461h46v-462z" />
    <glyph glyph-name="K" unicode="K" horiz-adv-x="616" 
d="M290 383l-148 -189v-194h-46v700h46v-442l344 442h52l-217 -278l250 -422h-52z" />
    <glyph glyph-name="L" unicode="L" horiz-adv-x="539" 
d="M488 0h-392v700h46v-658h346v-42z" />
    <glyph glyph-name="M" unicode="M" horiz-adv-x="790" 
d="M693 0h-44v602l-255 -614h-1l-252 614v-602h-45v700h52l247 -605l247 605h51v-700z" />
    <glyph glyph-name="N" unicode="N" horiz-adv-x="671" 
d="M574 0h-41l-392 621v-621h-45v700h45l389 -617v617h44v-700z" />
    <glyph glyph-name="O" unicode="O" horiz-adv-x="714" 
d="M645 352q0 -163 -80.5 -263t-208.5 -100t-207.5 99t-79.5 262t80.5 262t208.5 99t207.5 -98t79.5 -261zM599 350q0 146 -68.5 232.5t-174.5 86.5t-173.5 -85.5t-67.5 -231.5t68.5 -233.5t174.5 -87.5t173.5 86.5t67.5 232.5z" />
    <glyph glyph-name="P" unicode="P" horiz-adv-x="594" 
d="M549 500q0 -101 -63 -155t-175 -54h-169v-291h-46v700h229q104 0 164 -49t60 -151zM502 498q0 160 -179 160h-181v-325h169q191 0 191 165z" />
    <glyph glyph-name="Q" unicode="Q" horiz-adv-x="715" 
d="M646 351q0 -103 -34.5 -183t-95.5 -126l41 -65l-37 -22l-41 64q-57 -30 -122 -30q-128 0 -208 98.5t-80 261.5q0 164 80.5 263t208.5 99t208 -98.5t80 -261.5zM600 349q0 146 -69 233t-175 87t-173.5 -86t-67.5 -232t68.5 -233t174.5 -87q56 0 99 24l-64 103l37 23
l64 -103q106 85 106 271z" />
    <glyph glyph-name="R" unicode="R" horiz-adv-x="623" 
d="M555 509q0 -81 -45.5 -129.5t-127.5 -62.5l161 -317h-53l-157 311h-191v-311h-46v700h234q104 0 164.5 -46t60.5 -145zM509 508q0 150 -181 150h-186v-305h174q193 0 193 155z" />
    <glyph glyph-name="S" unicode="S" horiz-adv-x="576" 
d="M501 176q0 -85 -60.5 -136t-157.5 -51q-129 0 -225 84l31 34q90 -76 196 -76q74 0 122 37.5t48 105.5q0 58 -39.5 94t-143.5 74q-114 42 -155.5 83t-41.5 113q0 77 56.5 125t152.5 48q112 0 204 -67l-30 -36q-80 61 -177 61q-78 0 -119 -37t-41 -91q0 -55 35 -87.5
t141 -70.5q117 -44 160.5 -88t43.5 -119z" />
    <glyph glyph-name="T" unicode="T" horiz-adv-x="574" 
d="M526 658h-217v-658h-46v658h-217v42h480v-42z" />
    <glyph glyph-name="U" unicode="U" horiz-adv-x="667" 
d="M576 270q0 -281 -242 -281q-243 0 -243 280v431h46v-430q0 -239 199 -239q99 0 146.5 58.5t47.5 179.5v431h46v-430z" />
    <glyph glyph-name="V" unicode="V" horiz-adv-x="658" 
d="M596 700l-241 -702h-51l-242 702h48l219 -649l220 649h47z" />
    <glyph glyph-name="W" unicode="W" horiz-adv-x="875" 
d="M809 700l-150 -702h-54l-168 637l-168 -637h-53l-149 702h46l130 -640l168 640h54l168 -640l131 640h45z" />
    <glyph glyph-name="X" unicode="X" horiz-adv-x="613" 
d="M553 0h-52l-195 324l-196 -324h-50l222 365l-203 335h52l176 -293l177 293h50l-203 -334z" />
    <glyph glyph-name="Y" unicode="Y" horiz-adv-x="633" 
d="M578 700l-239 -412v-288h-46v287l-238 413h52l210 -366l210 366h51z" />
    <glyph glyph-name="Z" unicode="Z" horiz-adv-x="606" 
d="M535 0h-474v40l422 620h-402v40h454v-40l-422 -620h422v-40z" />
    <glyph glyph-name="bracketleft" unicode="[" horiz-adv-x="334" 
d="M269 -110h-169v810h169v-36h-126v-738h126v-36z" />
    <glyph glyph-name="backslash" unicode="\" horiz-adv-x="414" 
d="M376 -90h-44l-293 880h43z" />
    <glyph glyph-name="bracketright" unicode="]" horiz-adv-x="334" 
d="M234 -110h-169v36h126v738h-126v36h169v-810z" />
    <glyph glyph-name="asciicircum" unicode="^" horiz-adv-x="550" 
d="M494 382h-51l-168 270l-169 -270h-49l201 318h34z" />
    <glyph glyph-name="underscore" unicode="_" horiz-adv-x="500" 
d="M500 -133h-500v37h500v-37z" />
    <glyph glyph-name="grave" unicode="`" horiz-adv-x="500" 
d="M312 595h-36l-130 147h63z" />
    <glyph glyph-name="a" unicode="a" horiz-adv-x="532" 
d="M450 0h-44v79q-71 -90 -178 -90q-74 0 -124 38.5t-50 123.5q0 82 56.5 125.5t140.5 43.5q86 0 155 -39v78q0 74 -33 107t-104 33q-74 0 -151 -41l-16 36q81 42 170 42t133.5 -40t44.5 -132v-364zM406 123v122q-68 39 -157 39q-68 0 -110 -34t-42 -97q0 -66 38.5 -97
t99.5 -31q106 0 171 98z" />
    <glyph glyph-name="b" unicode="b" horiz-adv-x="553" 
d="M496 268q0 -137 -54.5 -208t-144.5 -71q-102 0 -167 88v-77h-44v704l44 25v-283q68 90 173 90q89 0 141 -66.5t52 -201.5zM451 267q0 115 -42 172.5t-117 57.5q-95 0 -162 -96v-275q28 -44 71 -71t93 -27q157 0 157 239z" />
    <glyph glyph-name="c" unicode="c" horiz-adv-x="492" 
d="M436 54q-67 -65 -163 -65q-91 0 -153.5 69.5t-62.5 202.5q0 135 65 205t155 70t159 -58l-27 -33q-60 52 -135 52q-73 0 -122.5 -61.5t-49.5 -170.5q0 -111 48.5 -174t124.5 -63q77 0 135 55z" />
    <glyph glyph-name="d" unicode="d" horiz-adv-x="553" 
d="M467 0h-44v79q-66 -90 -172 -90q-89 0 -141.5 66.5t-52.5 201.5q0 137 54.5 208t144.5 71q104 0 167 -88v256l44 25v-729zM423 124v275q-27 44 -70 71t-93 27q-158 0 -158 -239q0 -115 42 -172.5t118 -57.5q94 0 161 96z" />
    <glyph glyph-name="e" unicode="e" horiz-adv-x="538" 
d="M477 274q0 -12 -2 -24h-374q3 -104 49.5 -163t120.5 -59q82 0 157 47l20 -32q-45 -28 -85.5 -41t-96.5 -13q-86 0 -147.5 70t-61.5 205q0 125 60 198.5t152 73.5q95 0 151.5 -70.5t56.5 -191.5zM435 286q-3 100 -47 155.5t-119 55.5q-71 0 -117.5 -55t-50.5 -156h334z
" />
    <glyph glyph-name="f" unicode="f" horiz-adv-x="342" 
d="M302 673q-26 12 -62 12q-71 0 -71 -79v-81h122v-37h-122v-488h-44v488h-78v37h78v77q0 123 112 123q36 0 66 -10z" />
    <glyph glyph-name="g" unicode="g" horiz-adv-x="553" 
d="M467 47q0 -125 -60.5 -182t-206.5 -61l-15 37q135 4 186.5 48.5t51.5 152.5v37q-66 -90 -172 -90q-89 0 -141.5 66.5t-52.5 201.5q0 137 54.5 208t144.5 71q104 0 167 -88v77h44v-478zM423 124v275q-27 44 -70 71t-93 27q-158 0 -158 -239q0 -115 42 -172.5t118 -57.5
q94 0 161 96z" />
    <glyph glyph-name="h" unicode="h" horiz-adv-x="565" 
d="M483 0h-44v314q0 183 -151 183q-66 0 -112 -44t-46 -138v-315h-44v704l44 25v-293q19 47 63.5 73.5t103.5 26.5q87 0 136.5 -52.5t49.5 -161.5v-322z" />
    <glyph glyph-name="i" unicode="i" horiz-adv-x="226" 
d="M145 672q0 -13 -9.5 -22.5t-21.5 -9.5q-14 0 -23.5 9.5t-9.5 22.5q0 14 9.5 23t23.5 9q12 0 21.5 -9.5t9.5 -22.5zM135 0h-44v525h44v-525z" />
    <glyph glyph-name="j" unicode="j" horiz-adv-x="226" 
d="M145 672q0 -13 -9.5 -22.5t-21.5 -9.5q-14 0 -23.5 9.5t-9.5 22.5q0 14 9.5 23t23.5 9q12 0 21.5 -9.5t9.5 -22.5zM135 -2q0 -88 -26.5 -130t-101.5 -63l-17 38q62 19 81.5 49t19.5 107v526h44v-527z" />
    <glyph glyph-name="k" unicode="k" horiz-adv-x="494" 
d="M451 0h-48l-164 291l-109 -144v-147h-44v704l44 25v-523l237 319h49l-149 -197z" />
    <glyph glyph-name="l" unicode="l" horiz-adv-x="226" 
d="M135 0h-44v704l44 25v-729z" />
    <glyph glyph-name="m" unicode="m" horiz-adv-x="877" 
d="M803 0h-44v314q0 183 -143 183q-63 0 -106 -43.5t-43 -138.5v-315h-44v315q0 182 -144 182q-63 0 -106 -43.5t-43 -138.5v-315h-44v525h44v-89q19 48 60.5 74t97.5 26q64 0 105.5 -32.5t56.5 -86.5q19 57 63.5 88t110.5 31q84 0 131.5 -52t47.5 -162v-322z" />
    <glyph glyph-name="n" unicode="n" horiz-adv-x="565" 
d="M483 0h-44v314q0 183 -151 183q-66 0 -112 -44t-46 -138v-315h-44v525h44v-89q19 48 63 74t104 26q87 0 136.5 -52.5t49.5 -161.5v-322z" />
    <glyph glyph-name="o" unicode="o" horiz-adv-x="567" 
d="M510 265q0 -129 -64.5 -202.5t-163.5 -73.5q-98 0 -161.5 72t-63.5 201t64.5 201.5t163.5 72.5q98 0 161.5 -71.5t63.5 -199.5zM465 264q0 111 -50.5 172t-131.5 61t-131 -61t-50 -172q0 -112 50 -174t131 -62t131.5 62t50.5 174z" />
    <glyph glyph-name="p" unicode="p" horiz-adv-x="553" 
d="M496 268q0 -137 -54.5 -208t-144.5 -71q-102 0 -167 88v-242l-44 -25v715h44v-79q68 90 173 90q89 0 141 -66.5t52 -201.5zM451 267q0 115 -42 172.5t-117 57.5q-95 0 -162 -96v-275q28 -44 71 -71t93 -27q157 0 157 239z" />
    <glyph glyph-name="q" unicode="q" horiz-adv-x="553" 
d="M467 -165l-44 -25v269q-66 -90 -172 -90q-89 0 -141.5 66.5t-52.5 201.5q0 137 54.5 208t144.5 71q104 0 167 -88v77h44v-690zM423 124v275q-27 44 -70 71t-93 27q-158 0 -158 -239q0 -115 42 -172.5t118 -57.5q94 0 161 96z" />
    <glyph glyph-name="r" unicode="r" horiz-adv-x="396" 
d="M360 522l-11 -43q-37 16 -81 16q-57 0 -97.5 -45t-40.5 -134v-316h-44v525h44v-95q15 48 56.5 77t90.5 29q55 0 83 -14z" />
    <glyph glyph-name="s" unicode="s" horiz-adv-x="449" 
d="M388 129q0 -67 -47.5 -103.5t-122.5 -36.5q-91 0 -169 61l24 32q66 -55 146 -55q61 0 94 26.5t33 74.5q0 40 -28.5 67t-105.5 60q-85 36 -116.5 67t-31.5 88q0 55 42.5 90.5t110.5 35.5q97 0 160 -52l-25 -32q-59 46 -137 46q-50 0 -79 -24.5t-29 -60.5q0 -41 26 -65.5
t102 -56.5q84 -36 118.5 -69t34.5 -93z" />
    <glyph glyph-name="t" unicode="t" horiz-adv-x="348" 
d="M289 49l-2 -39q-43 -19 -94 -19q-89 0 -89 102v395h-68v37h68v179l44 25v-204h139v-37h-139v-388q0 -69 61 -69q43 0 80 18z" />
    <glyph glyph-name="u" unicode="u" horiz-adv-x="565" 
d="M479 0h-44v89q-16 -48 -60.5 -74t-105.5 -26q-88 0 -137.5 52.5t-49.5 161.5v322h44v-314q0 -183 151 -183q66 0 112 44t46 138v315h44v-525z" />
    <glyph glyph-name="v" unicode="v" horiz-adv-x="509" 
d="M466 525l-192 -526h-39l-192 526h48l164 -474l165 474h46z" />
    <glyph glyph-name="w" unicode="w" 
d="M672 525l-139 -526h-41l-132 459l-133 -459h-40l-139 526h46l114 -458l133 459h40l133 -459l114 458h44z" />
    <glyph glyph-name="x" unicode="x" horiz-adv-x="492" 
d="M437 0h-50l-142 238l-143 -238h-47l168 274l-153 251h49l128 -213l128 213h47l-153 -249z" />
    <glyph glyph-name="y" unicode="y" horiz-adv-x="514" 
d="M471 525l-263 -710h-44l70 188l-191 522h47l167 -472l167 472h47z" />
    <glyph glyph-name="z" unicode="z" horiz-adv-x="491" 
d="M423 0h-366v33l316 455h-288v37h338v-33l-315 -455h315v-37z" />
    <glyph glyph-name="braceleft" unicode="{" horiz-adv-x="377" 
d="M323 -110q-91 5 -134 51.5t-43 145.5v117q0 71 -63 71h-29v42h29q63 0 63 71v119q0 100 43 145.5t134 50.5v-37q-70 -8 -101.5 -42.5t-31.5 -111.5v-108q0 -87 -58 -109q31 -11 44.5 -36.5t13.5 -71.5v-105q0 -77 31.5 -111.5t101.5 -42.5v-38z" />
    <glyph glyph-name="bar" unicode="|" horiz-adv-x="291" 
d="M167 -185h-43v985h43v-985z" />
    <glyph glyph-name="braceright" unicode="}" horiz-adv-x="377" 
d="M322 277h-28q-63 0 -63 -72v-118q0 -99 -43 -145.5t-134 -51.5v38q70 8 101.5 42.5t31.5 111.5v108q0 46 13.5 71.5t44.5 36.5q-58 22 -58 109v105q0 77 -31.5 111.5t-101.5 42.5v37q91 -5 134 -50.5t43 -145.5v-117q0 -72 63 -72h28v-41z" />
    <glyph glyph-name="asciitilde" unicode="~" horiz-adv-x="538" 
d="M481 413q-24 -53 -51.5 -77t-69.5 -24t-94 35q-55 38 -87 38q-27 0 -45.5 -17t-37.5 -57l-39 18q24 53 52 77t70 24t93 -35q55 -38 88 -38q27 0 44.5 16.5t37.5 57.5z" />
    <glyph glyph-name="nbspace" unicode="&#xa0;" horiz-adv-x="126" 
 />
    <glyph glyph-name="exclamdown" unicode="&#xa1;" horiz-adv-x="244" 
d="M84 669q0 15 11.5 26t25.5 11q15 0 26 -11t11 -26t-11 -26.5t-26 -11.5q-14 0 -25.5 11.5t-11.5 26.5zM99 329l10 208h25l10 -208v-329h-45v329z" />
    <glyph glyph-name="cent" unicode="&#xa2;" horiz-adv-x="492" 
d="M436 148q-59 -57 -141 -63v-96h-45v96q-82 9 -137.5 78.5t-55.5 191.5t56 192.5t137 80.5v88h45v-87q80 -5 141 -57l-26 -32q-60 51 -136 51q-73 0 -122.5 -61.5t-49.5 -170.5q0 -111 48.5 -174t124.5 -63q78 0 135 54z" />
    <glyph glyph-name="sterling" unicode="&#xa3;" horiz-adv-x="582" 
d="M229 306q3 -19 3 -41q0 -120 -97 -223h392v-42h-448v41q109 113 109 225q0 23 -4 40h-105v41h93q-7 19 -25.5 56t-29 68.5t-10.5 67.5q0 80 57.5 126t151.5 46q108 0 198 -74l-28 -34q-76 67 -171 67q-77 0 -120 -36.5t-43 -93.5q0 -43 31 -109.5t36 -83.5h163v-41h-153z
" />
    <glyph glyph-name="yen" unicode="&#xa5;" horiz-adv-x="610" 
d="M561 700l-233 -412v-100h148v-41h-148v-147h-46v147h-153v41h153v99l-233 413h53l204 -369l204 369h51z" />
    <glyph glyph-name="brokenbar" unicode="&#xa6;" 
d="M695 347l-149 -113q-4 -3 -6.5 -1t-0.5 6l69 88h-227v-255l88 70q4 1 6 -1.5t0 -5.5l-114 -150l-113 150q-3 3 -1 6t6 1l88 -70v255h-229l69 -88q2 -4 -0.5 -6t-6.5 1l-149 113l149 114q4 2 6.5 0t0.5 -6l-69 -88h229v261l-88 -70q-4 -2 -6 1t1 6l113 150l114 -150
q2 -3 0 -5.5t-6 -1.5l-88 70v-261h227l-69 88q-1 4 1 6t6 0z" />
    <glyph glyph-name="section" unicode="&#xa7;" horiz-adv-x="609" 
d="M551 265q0 -61 -41 -104.5t-110 -68.5q44 -23 63 -50t19 -66q0 -63 -49 -101.5t-130 -38.5q-104 0 -181 60l24 36q76 -55 164 -55q58 0 92.5 26.5t34.5 68.5q0 44 -34.5 71t-126.5 53q-125 35 -171.5 75t-46.5 111q0 61 41 104.5t110 68.5q-44 23 -63 50t-19 66
q0 63 49 101.5t130 38.5q103 0 181 -61l-24 -35q-72 55 -164 55q-58 0 -92.5 -26.5t-34.5 -68.5q0 -44 34.5 -71t126.5 -53q125 -35 171.5 -75t46.5 -111zM505 262q0 53 -36.5 85t-140.5 61q-40 11 -80 26q-68 -22 -106 -60t-38 -89q0 -53 36.5 -85t139.5 -61q40 -11 81 -26
q68 22 106 60t38 89z" />
    <glyph glyph-name="dieresis" unicode="&#xa8;" horiz-adv-x="500" 
d="M380 659q0 -13 -10 -23t-23 -10t-23 10t-10 23q0 14 10 24t23 10t23 -10t10 -24zM186 659q0 -13 -9.5 -23t-22.5 -10q-14 0 -24 9.5t-10 23.5t10 24t24 10q13 0 22.5 -10t9.5 -24z" />
    <glyph glyph-name="copyright" unicode="&#xa9;" horiz-adv-x="836" 
d="M779 350q0 -158 -102.5 -259.5t-258.5 -101.5t-258.5 101.5t-102.5 259.5t102.5 259.5t258.5 101.5t258.5 -101.5t102.5 -259.5zM749 350q0 146 -94 239.5t-237 93.5t-237 -93.5t-94 -239.5t94 -239.5t237 -93.5t237 93.5t94 239.5zM542 195q-49 -57 -124 -57
q-74 0 -120.5 59t-46.5 153t47 153t121 59q75 0 119 -52l-24 -21q-37 43 -95 43q-60 0 -98 -50t-38 -131t38 -132t98 -51q59 0 101 49z" />
    <glyph glyph-name="ordfeminine" unicode="&#xaa;" horiz-adv-x="457" 
d="M378 282h-40v59q-51 -68 -140 -68q-59 0 -100 31t-41 99q0 67 46 102t114 35q67 0 121 -30v59q0 57 -26 82.5t-81 25.5q-65 0 -121 -32l-15 31q65 35 139 35q72 0 108 -32.5t36 -105.5v-291zM338 382v95q-55 30 -123 30q-53 0 -85.5 -26.5t-32.5 -74.5q0 -51 30 -75
t77 -24q85 0 134 75z" />
    <glyph glyph-name="guillemotleft" unicode="&#xab;" horiz-adv-x="556" 
d="M502 0h-50l-203 262l203 263h50l-203 -262zM289 0h-50l-203 262l203 263h50l-203 -262z" />
    <glyph glyph-name="logicalnot" unicode="&#xac;" horiz-adv-x="613" 
d="M579 347l-155 -111q-4 -3 -7.5 -0.5t-1.5 5.5l69 85h-423v42h423l-69 85q-2 3 1.5 5.5t7.5 0.5z" />
    <glyph glyph-name="registered" unicode="&#xae;" horiz-adv-x="836" 
d="M779 350q0 -158 -102.5 -259.5t-258.5 -101.5t-258.5 101.5t-102.5 259.5t102.5 259.5t258.5 101.5t258.5 -101.5t102.5 -259.5zM749 350q0 146 -94 239.5t-237 93.5t-237 -93.5t-94 -239.5t94 -239.5t237 -93.5t237 93.5t94 239.5zM568 448q0 -95 -98 -113l94 -183h-37
l-93 180q-2 0 -7.5 -0.5t-8.5 -0.5h-90v-179h-31v408h137q134 0 134 -112zM536 448q0 83 -103 83h-105v-170h98q110 0 110 87z" />
    <glyph glyph-name="macron" unicode="&#xaf;" horiz-adv-x="500" 
d="M386 628h-272v41h272v-41z" />
    <glyph glyph-name="degree" unicode="&#xb0;" horiz-adv-x="459" 
d="M400 536q0 -76 -48 -126t-123 -50q-74 0 -122.5 50.5t-48.5 125.5q0 74 48.5 124.5t122.5 50.5t122.5 -50.5t48.5 -124.5zM361 536q0 60 -36.5 99t-95.5 39q-57 0 -94 -39t-37 -99q0 -61 36.5 -100t94.5 -39q59 0 95.5 39t36.5 100z" />
    <glyph glyph-name="plusminus" unicode="&#xb1;" 
d="M695 347l-149 -113q-4 -3 -6.5 -1t-0.5 6l69 88h-227v-255l88 70q4 1 6 -1.5t0 -5.5l-114 -150l-113 150q-3 3 -1 6t6 1l88 -70v255h-229l69 -88q2 -4 -0.5 -6t-6.5 1l-149 113l149 114q4 2 6.5 0t0.5 -6l-69 -88h229v261l-88 -70q-4 -2 -6 1t1 6l113 150l114 -150
q2 -3 0 -5.5t-6 -1.5l-88 70v-261h227l-69 88q-1 4 1 6t6 0z" />
    <glyph glyph-name="twosuperior" unicode="&#xb2;" 
d="M695 347l-149 -113q-4 -3 -6.5 -1t-0.5 6l69 88h-227v-255l88 70q4 1 6 -1.5t0 -5.5l-114 -150l-113 150q-3 3 -1 6t6 1l88 -70v255h-229l69 -88q2 -4 -0.5 -6t-6.5 1l-149 113l149 114q4 2 6.5 0t0.5 -6l-69 -88h229v261l-88 -70q-4 -2 -6 1t1 6l113 150l114 -150
q2 -3 0 -5.5t-6 -1.5l-88 70v-261h227l-69 88q-1 4 1 6t6 0z" />
    <glyph glyph-name="threesuperior" unicode="&#xb3;" 
d="M695 347l-149 -113q-4 -3 -6.5 -1t-0.5 6l69 88h-227v-255l88 70q4 1 6 -1.5t0 -5.5l-114 -150l-113 150q-3 3 -1 6t6 1l88 -70v255h-229l69 -88q2 -4 -0.5 -6t-6.5 1l-149 113l149 114q4 2 6.5 0t0.5 -6l-69 -88h229v261l-88 -70q-4 -2 -6 1t1 6l113 150l114 -150
q2 -3 0 -5.5t-6 -1.5l-88 70v-261h227l-69 88q-1 4 1 6t6 0z" />
    <glyph glyph-name="acute" unicode="&#xb4;" horiz-adv-x="500" 
d="M354 742l-130 -147h-36l103 147h63z" />
    <glyph glyph-name="mu" unicode="&#xb5;" horiz-adv-x="744" 
d="M719 347l-155 -111q-3 -3 -7 -0.5t-2 5.5l70 85h-506l70 -85q2 -3 -1.5 -5.5t-7.5 0.5l-155 111l155 112q4 2 7.5 -0.5t1.5 -5.5l-70 -85h506l-70 85q-2 3 2 5.5t7 0.5z" />
    <glyph glyph-name="paragraph" unicode="&#xb6;" horiz-adv-x="657" 
d="M558 -185h-45v845h-114v-845h-46v447h-70q-107 0 -171 59.5t-64 161.5t66.5 159.5t169.5 57.5h274v-885zM353 302v358h-64q-92 0 -143.5 -45t-51.5 -130t48 -134t146 -49h65z" />
    <glyph glyph-name="periodcentered" unicode="&#xb7;" horiz-adv-x="211" 
d="M143 377q0 -16 -11.5 -27t-26.5 -11q-16 0 -27 11t-11 27t11 28t27 12q15 0 26.5 -12t11.5 -28z" />
    <glyph glyph-name="cedilla" unicode="&#xb8;" horiz-adv-x="500" 
d="M359 -101q0 -76 -107 -76q-57 0 -106 32l14 21q40 -28 94 -28q34 0 52 13.5t18 36.5q0 18 -11.5 28.5t-29.5 10.5q-31 0 -52 -21l-26 9l30 75h31l-20 -50q19 12 51 12q24 0 43 -16.5t19 -46.5z" />
    <glyph glyph-name="onesuperior" unicode="&#xb9;" 
d="M695 347l-149 -113q-4 -3 -6.5 -1t-0.5 6l69 88h-227v-255l88 70q4 1 6 -1.5t0 -5.5l-114 -150l-113 150q-3 3 -1 6t6 1l88 -70v255h-229l69 -88q2 -4 -0.5 -6t-6.5 1l-149 113l149 114q4 2 6.5 0t0.5 -6l-69 -88h229v261l-88 -70q-4 -2 -6 1t1 6l113 150l114 -150
q2 -3 0 -5.5t-6 -1.5l-88 70v-261h227l-69 88q-1 4 1 6t6 0z" />
    <glyph glyph-name="ordmasculine" unicode="&#xba;" horiz-adv-x="482" 
d="M424 494q0 -103 -52 -161.5t-132 -58.5t-131 57.5t-51 160.5t52 161t132 58t131 -57.5t51 -159.5zM384 493q0 87 -39.5 134.5t-103.5 47.5t-103.5 -47.5t-39.5 -134.5t39.5 -135.5t103.5 -48.5t103.5 48t39.5 136z" />
    <glyph glyph-name="guillemotright" unicode="&#xbb;" horiz-adv-x="556" 
d="M267 0l203 263l-203 262h50l203 -263l-203 -262h-50zM54 0l203 263l-203 262h50l203 -263l-203 -262h-50z" />
    <glyph glyph-name="onequarter" unicode="&#xbc;" 
d="M695 347l-149 -113q-4 -3 -6.5 -1t-0.5 6l69 88h-227v-255l88 70q4 1 6 -1.5t0 -5.5l-114 -150l-113 150q-3 3 -1 6t6 1l88 -70v255h-229l69 -88q2 -4 -0.5 -6t-6.5 1l-149 113l149 114q4 2 6.5 0t0.5 -6l-69 -88h229v261l-88 -70q-4 -2 -6 1t1 6l113 150l114 -150
q2 -3 0 -5.5t-6 -1.5l-88 70v-261h227l-69 88q-1 4 1 6t6 0z" />
    <glyph glyph-name="onehalf" unicode="&#xbd;" 
d="M695 347l-149 -113q-4 -3 -6.5 -1t-0.5 6l69 88h-227v-255l88 70q4 1 6 -1.5t0 -5.5l-114 -150l-113 150q-3 3 -1 6t6 1l88 -70v255h-229l69 -88q2 -4 -0.5 -6t-6.5 1l-149 113l149 114q4 2 6.5 0t0.5 -6l-69 -88h229v261l-88 -70q-4 -2 -6 1t1 6l113 150l114 -150
q2 -3 0 -5.5t-6 -1.5l-88 70v-261h227l-69 88q-1 4 1 6t6 0z" />
    <glyph glyph-name="threequarters" unicode="&#xbe;" 
d="M695 347l-149 -113q-4 -3 -6.5 -1t-0.5 6l69 88h-227v-255l88 70q4 1 6 -1.5t0 -5.5l-114 -150l-113 150q-3 3 -1 6t6 1l88 -70v255h-229l69 -88q2 -4 -0.5 -6t-6.5 1l-149 113l149 114q4 2 6.5 0t0.5 -6l-69 -88h229v261l-88 -70q-4 -2 -6 1t1 6l113 150l114 -150
q2 -3 0 -5.5t-6 -1.5l-88 70v-261h227l-69 88q-1 4 1 6t6 0z" />
    <glyph glyph-name="questiondown" unicode="&#xbf;" horiz-adv-x="557" 
d="M268 669q0 15 11.5 26t25.5 11q15 0 26 -11t11 -26t-11 -26.5t-26 -11.5q-14 0 -25.5 11.5t-11.5 26.5zM79 154q0 62 26 97.5t95 87.5q53 40 67.5 74.5t14.5 123.5h46q0 -102 -19 -142.5t-87 -89.5q-55 -39 -76 -69.5t-21 -78.5q0 -56 43.5 -91t114.5 -35q105 0 191 73
l26 -33q-93 -82 -219 -82q-92 0 -147 43.5t-55 121.5z" />
    <glyph glyph-name="Agrave" unicode="&#xc0;" horiz-adv-x="664" 
d="M602 0h-48l-67 193h-311l-67 -193h-47l245 702h50zM473 235l-141 411l-142 -411h283zM351 745h-36l-130 147h63z" />
    <glyph glyph-name="Aacute" unicode="&#xc1;" horiz-adv-x="664" 
d="M602 0h-48l-67 193h-311l-67 -193h-47l245 702h50zM473 235l-141 411l-142 -411h283zM479 892l-130 -147h-36l103 147h63z" />
    <glyph glyph-name="Acircumflex" unicode="&#xc2;" horiz-adv-x="664" 
d="M602 0h-48l-67 193h-311l-67 -193h-47l245 702h50zM473 235l-141 411l-142 -411h283zM487 725h-39l-117 113l-116 -113h-38l130 147h50z" />
    <glyph glyph-name="Atilde" unicode="&#xc3;" horiz-adv-x="664" 
d="M602 0h-48l-67 193h-311l-67 -193h-47l245 702h50zM473 235l-141 411l-142 -411h283zM496 852q-2 -51 -26.5 -78t-62.5 -27q-35 0 -75 30q-47 34 -62 38q-7 2 -15 2q-43 0 -53 -68h-36q2 51 26.5 78t62.5 27q35 0 75 -30q32 -24 46 -32t31 -8q43 0 53 68h36z" />
    <glyph glyph-name="Adieresis" unicode="&#xc4;" horiz-adv-x="664" 
d="M602 0h-48l-67 193h-311l-67 -193h-47l245 702h50zM473 235l-141 411l-142 -411h283zM463 807q0 -13 -9.5 -23t-23.5 -10t-23.5 10t-9.5 23q0 14 10 24t23 10t23 -10t10 -24zM269 807q0 -13 -9.5 -23t-22.5 -10q-14 0 -24 9.5t-10 23.5t10 24t24 10q13 0 22.5 -10
t9.5 -24z" />
    <glyph glyph-name="Aring" unicode="&#xc5;" horiz-adv-x="664" 
d="M602 0h-48l-67 193h-311l-67 -193h-47l236 674q-28 10 -46 34.5t-18 56.5q0 41 28 69t70 28q41 0 69 -28t28 -69q0 -31 -18 -56t-46 -34zM401 765q0 29 -19.5 49t-49.5 20t-50 -20t-20 -49q0 -31 19.5 -50.5t50.5 -19.5q30 0 49.5 19.5t19.5 50.5zM473 235l-141 411
l-142 -411h283z" />
    <glyph glyph-name="AE" unicode="&#xc6;" horiz-adv-x="964" 
d="M916 0h-411v193h-297l-129 -193h-53l474 700h401v-42h-352v-264h213v-42h-213v-310h367v-42zM505 235v402l-270 -402h270z" />
    <glyph glyph-name="Ccedilla" unicode="&#xc7;" horiz-adv-x="619" 
d="M318 -9q-113 14 -181 112t-68 246q0 161 79 261.5t205 100.5q125 0 199 -89l-31 -32q-34 41 -73.5 60t-95.5 19q-104 0 -170.5 -88t-66.5 -230q0 -143 67 -231.5t170 -88.5q101 0 177 85l30 -31q-81 -96 -208 -96h-2l-16 -39q19 12 51 12q24 0 43 -16.5t19 -46.5
q0 -76 -107 -76q-57 0 -106 32l14 21q40 -28 94 -28q34 0 52 13.5t18 36.5q0 18 -11.5 28.5t-29.5 10.5q-31 0 -52 -21l-26 9z" />
    <glyph glyph-name="Egrave" unicode="&#xc8;" horiz-adv-x="555" 
d="M507 0h-411v700h396v-42h-350v-264h212v-42h-212v-310h365v-42zM329 745h-36l-130 147h63z" />
    <glyph glyph-name="Eacute" unicode="&#xc9;" horiz-adv-x="555" 
d="M507 0h-411v700h396v-42h-350v-264h212v-42h-212v-310h365v-42zM422 892l-130 -147h-36l103 147h63z" />
    <glyph glyph-name="Ecircumflex" unicode="&#xca;" horiz-adv-x="555" 
d="M507 0h-411v700h396v-42h-350v-264h212v-42h-212v-310h365v-42zM448 745h-39l-117 113l-116 -113h-38l130 147h50z" />
    <glyph glyph-name="Edieresis" unicode="&#xcb;" horiz-adv-x="555" 
d="M507 0h-411v700h396v-42h-350v-264h212v-42h-212v-310h365v-42zM425 809q0 -13 -9.5 -23t-23.5 -10t-23.5 10t-9.5 23q0 14 10 24t23 10t23 -10t10 -24zM231 809q0 -13 -9.5 -23t-22.5 -10q-14 0 -24 9.5t-10 23.5t10 24t24 10q13 0 22.5 -10t9.5 -24z" />
    <glyph glyph-name="Igrave" unicode="&#xcc;" horiz-adv-x="249" 
d="M147 0h-46v700h46v-700zM145 745h-36l-130 147h63z" />
    <glyph glyph-name="Iacute" unicode="&#xcd;" horiz-adv-x="249" 
d="M147 0h-46v700h46v-700zM270 892l-130 -147h-36l103 147h63z" />
    <glyph glyph-name="Icircumflex" unicode="&#xce;" horiz-adv-x="249" 
d="M147 0h-46v700h46v-700zM278 734h-39l-117 113l-116 -113h-38l130 147h50z" />
    <glyph glyph-name="Idieresis" unicode="&#xcf;" horiz-adv-x="249" 
d="M147 0h-46v700h46v-700zM254 809q0 -13 -10 -23t-23 -10t-23 10t-10 23q0 14 10 24t23 10t23 -10t10 -24zM60 809q0 -13 -9.5 -23t-22.5 -10q-14 0 -24 9.5t-10 23.5t10 24t24 10q13 0 22.5 -10t9.5 -24z" />
    <glyph glyph-name="Eth" unicode="&#xd0;" horiz-adv-x="679" 
d="M602 353q0 -180 -86 -266.5t-236 -86.5h-174v344h-66v42h66v314h182q148 0 231 -86t83 -261zM556 351q0 153 -69 230t-203 77h-133v-272h152v-42h-152v-302h135q270 0 270 309z" />
    <glyph glyph-name="Ntilde" unicode="&#xd1;" horiz-adv-x="671" 
d="M574 0h-41l-392 621v-621h-45v700h45l389 -617v617h44v-700zM505 852q-2 -51 -26.5 -78t-62.5 -27q-35 0 -75 30q-47 34 -62 38q-7 2 -15 2q-43 0 -53 -68h-36q2 51 26.5 78t62.5 27q35 0 75 -30q32 -24 46 -32t31 -8q43 0 53 68h36z" />
    <glyph glyph-name="Ograve" unicode="&#xd2;" horiz-adv-x="714" 
d="M645 352q0 -163 -80.5 -263t-208.5 -100t-207.5 99t-79.5 262t80.5 262t208.5 99t207.5 -98t79.5 -261zM599 350q0 146 -68.5 232.5t-174.5 86.5t-173.5 -85.5t-67.5 -231.5t68.5 -233.5t174.5 -87.5t173.5 86.5t67.5 232.5zM382 745h-36l-130 147h63z" />
    <glyph glyph-name="Oacute" unicode="&#xd3;" horiz-adv-x="714" 
d="M645 352q0 -163 -80.5 -263t-208.5 -100t-207.5 99t-79.5 262t80.5 262t208.5 99t207.5 -98t79.5 -261zM599 350q0 146 -68.5 232.5t-174.5 86.5t-173.5 -85.5t-67.5 -231.5t68.5 -233.5t174.5 -87.5t173.5 86.5t67.5 232.5zM492 892l-130 -147h-36l103 147h63z" />
    <glyph glyph-name="Ocircumflex" unicode="&#xd4;" horiz-adv-x="714" 
d="M645 352q0 -163 -80.5 -263t-208.5 -100t-207.5 99t-79.5 262t80.5 262t208.5 99t207.5 -98t79.5 -261zM599 350q0 146 -68.5 232.5t-174.5 86.5t-173.5 -85.5t-67.5 -231.5t68.5 -233.5t174.5 -87.5t173.5 86.5t67.5 232.5zM511 742h-39l-117 113l-116 -113h-38l130 147
h50z" />
    <glyph glyph-name="Otilde" unicode="&#xd5;" horiz-adv-x="714" 
d="M645 352q0 -163 -80.5 -263t-208.5 -100t-207.5 99t-79.5 262t80.5 262t208.5 99t207.5 -98t79.5 -261zM599 350q0 146 -68.5 232.5t-174.5 86.5t-173.5 -85.5t-67.5 -231.5t68.5 -233.5t174.5 -87.5t173.5 86.5t67.5 232.5zM519 852q-2 -51 -26.5 -78t-62.5 -27
q-35 0 -75 30q-47 34 -62 38q-7 2 -15 2q-43 0 -53 -68h-36q2 51 26.5 78t62.5 27q35 0 75 -30q32 -24 46 -32t31 -8q43 0 53 68h36z" />
    <glyph glyph-name="Odieresis" unicode="&#xd6;" horiz-adv-x="714" 
d="M645 352q0 -163 -80.5 -263t-208.5 -100t-207.5 99t-79.5 262t80.5 262t208.5 99t207.5 -98t79.5 -261zM599 350q0 146 -68.5 232.5t-174.5 86.5t-173.5 -85.5t-67.5 -231.5t68.5 -233.5t174.5 -87.5t173.5 86.5t67.5 232.5zM486 809q0 -13 -10 -23t-23 -10t-23 10
t-10 23q0 14 10 24t23 10t23 -10t10 -24zM292 809q0 -13 -9.5 -23t-22.5 -10q-14 0 -24 9.5t-10 23.5t10 24t24 10q13 0 22.5 -10t9.5 -24z" />
    <glyph glyph-name="multiply" unicode="&#xd7;" 
d="M695 347l-149 -113q-4 -3 -6.5 -1t-0.5 6l69 88h-227v-255l88 70q4 1 6 -1.5t0 -5.5l-114 -150l-113 150q-3 3 -1 6t6 1l88 -70v255h-229l69 -88q2 -4 -0.5 -6t-6.5 1l-149 113l149 114q4 2 6.5 0t0.5 -6l-69 -88h229v261l-88 -70q-4 -2 -6 1t1 6l113 150l114 -150
q2 -3 0 -5.5t-6 -1.5l-88 70v-261h227l-69 88q-1 4 1 6t6 0z" />
    <glyph glyph-name="Oslash" unicode="&#xd8;" horiz-adv-x="714" 
d="M188 48q-56 46 -87.5 124.5t-31.5 178.5q0 163 80 261.5t208 98.5q72 0 132 -34l34 73h41l-44 -93q125 -98 125 -306q0 -163 -80 -262.5t-208 -99.5q-76 0 -138 37l-36 -76h-41q27 57 46 98zM208 90l262 548q-51 31 -113 31q-106 0 -174 -86t-68 -232q0 -173 93 -261z
M500 616l-262 -550q53 -35 119 -35q106 0 174 87t68 233q0 177 -99 265z" />
    <glyph glyph-name="Ugrave" unicode="&#xd9;" horiz-adv-x="667" 
d="M576 270q0 -281 -242 -281q-243 0 -243 280v431h46v-430q0 -239 199 -239q99 0 146.5 58.5t47.5 179.5v431h46v-430zM359 732h-36l-130 147h63z" />
    <glyph glyph-name="Uacute" unicode="&#xda;" horiz-adv-x="667" 
d="M576 270q0 -281 -242 -281q-243 0 -243 280v431h46v-430q0 -239 199 -239q99 0 146.5 58.5t47.5 179.5v431h46v-430zM468 879l-130 -147h-36l103 147h63z" />
    <glyph glyph-name="Ucircumflex" unicode="&#xdb;" horiz-adv-x="667" 
d="M576 270q0 -281 -242 -281q-243 0 -243 280v431h46v-430q0 -239 199 -239q99 0 146.5 58.5t47.5 179.5v431h46v-430zM488 745h-39l-117 113l-116 -113h-38l130 147h50z" />
    <glyph glyph-name="Udieresis" unicode="&#xdc;" horiz-adv-x="667" 
d="M576 270q0 -281 -242 -281q-243 0 -243 280v431h46v-430q0 -239 199 -239q99 0 146.5 58.5t47.5 179.5v431h46v-430zM464 805q0 -13 -10 -23t-23 -10t-23 10t-10 23q0 14 10 24t23 10t23 -10t10 -24zM270 805q0 -13 -9.5 -23t-22.5 -10q-14 0 -24 9.5t-10 23.5t10 24
t24 10q13 0 22.5 -10t9.5 -24z" />
    <glyph glyph-name="Yacute" unicode="&#xdd;" horiz-adv-x="633" 
d="M578 700l-239 -412v-288h-46v287l-238 413h52l210 -366l210 366h51zM459 877l-130 -147h-36l103 147h63z" />
    <glyph glyph-name="Thorn" unicode="&#xde;" horiz-adv-x="594" 
d="M549 367q0 -101 -63 -154.5t-175 -53.5h-169v-159h-46v700h46v-133h183q104 0 164 -49t60 -151zM502 365q0 160 -179 160h-181v-324h169q191 0 191 164z" />
    <glyph glyph-name="germandbls" unicode="&#xdf;" horiz-adv-x="569" 
d="M512 222q0 -114 -70 -168t-186 -54h-13v39h15q210 0 210 179q0 79 -56.5 121t-150.5 42h-18v38h20q74 0 111.5 35.5t37.5 101.5q0 57 -38 92.5t-105 35.5q-64 0 -101.5 -41.5t-37.5 -117.5v-690l-44 -25v708q0 97 49.5 151t135.5 54q85 0 135.5 -47.5t50.5 -119.5
q0 -65 -32.5 -102.5t-87.5 -49.5q78 -11 126.5 -56t48.5 -126z" />
    <glyph glyph-name="agrave" unicode="&#xe0;" horiz-adv-x="532" 
d="M450 0h-44v79q-71 -90 -178 -90q-74 0 -124 38.5t-50 123.5q0 82 56.5 125.5t140.5 43.5q86 0 155 -39v78q0 74 -33 107t-104 33q-74 0 -151 -41l-16 36q81 42 170 42t133.5 -40t44.5 -132v-364zM406 123v122q-68 39 -157 39q-68 0 -110 -34t-42 -97q0 -66 38.5 -97
t99.5 -31q106 0 171 98zM296 595h-36l-130 147h63z" />
    <glyph glyph-name="aacute" unicode="&#xe1;" horiz-adv-x="532" 
d="M450 0h-44v79q-71 -90 -178 -90q-74 0 -124 38.5t-50 123.5q0 82 56.5 125.5t140.5 43.5q86 0 155 -39v78q0 74 -33 107t-104 33q-74 0 -151 -41l-16 36q81 42 170 42t133.5 -40t44.5 -132v-364zM406 123v122q-68 39 -157 39q-68 0 -110 -34t-42 -97q0 -66 38.5 -97
t99.5 -31q106 0 171 98zM408 742l-130 -147h-36l103 147h63z" />
    <glyph glyph-name="acircumflex" unicode="&#xe2;" horiz-adv-x="532" 
d="M450 0h-44v79q-71 -90 -178 -90q-74 0 -124 38.5t-50 123.5q0 82 56.5 125.5t140.5 43.5q86 0 155 -39v78q0 74 -33 107t-104 33q-74 0 -151 -41l-16 36q81 42 170 42t133.5 -40t44.5 -132v-364zM406 123v122q-68 39 -157 39q-68 0 -110 -34t-42 -97q0 -66 38.5 -97
t99.5 -31q106 0 171 98zM422 592h-39l-117 113l-116 -113h-38l130 147h50z" />
    <glyph glyph-name="atilde" unicode="&#xe3;" horiz-adv-x="532" 
d="M450 0h-44v79q-71 -90 -178 -90q-74 0 -124 38.5t-50 123.5q0 82 56.5 125.5t140.5 43.5q86 0 155 -39v78q0 74 -33 107t-104 33q-74 0 -151 -41l-16 36q81 42 170 42t133.5 -40t44.5 -132v-364zM406 123v122q-68 39 -157 39q-68 0 -110 -34t-42 -97q0 -66 38.5 -97
t99.5 -31q106 0 171 98zM433 702q-2 -51 -26.5 -78t-62.5 -27q-35 0 -75 30q-47 34 -62 38q-7 2 -15 2q-43 0 -53 -68h-36q2 51 26.5 78t62.5 27q35 0 75 -30q32 -24 46 -32t31 -8q43 0 53 68h36z" />
    <glyph glyph-name="adieresis" unicode="&#xe4;" horiz-adv-x="532" 
d="M450 0h-44v79q-71 -90 -178 -90q-74 0 -124 38.5t-50 123.5q0 82 56.5 125.5t140.5 43.5q86 0 155 -39v78q0 74 -33 107t-104 33q-74 0 -151 -41l-16 36q81 42 170 42t133.5 -40t44.5 -132v-364zM406 123v122q-68 39 -157 39q-68 0 -110 -34t-42 -97q0 -66 38.5 -97
t99.5 -31q106 0 171 98zM397 656q0 -14 -9.5 -23.5t-23.5 -9.5t-23.5 9.5t-9.5 23.5t10 24t23 10t23 -10t10 -24zM203 656q0 -13 -9.5 -23t-22.5 -10q-14 0 -24 9.5t-10 23.5t10 24t24 10q13 0 22.5 -10t9.5 -24z" />
    <glyph glyph-name="aring" unicode="&#xe5;" horiz-adv-x="532" 
d="M450 0h-44v79q-71 -90 -178 -90q-74 0 -124 38.5t-50 123.5q0 82 56.5 125.5t140.5 43.5q86 0 155 -39v78q0 74 -33 107t-104 33q-74 0 -151 -41l-16 36q81 42 170 42t133.5 -40t44.5 -132v-364zM406 123v122q-68 39 -157 39q-68 0 -110 -34t-42 -97q0 -66 38.5 -97
t99.5 -31q106 0 171 98zM366 694q0 -41 -28 -69t-70 -28t-70 28t-28 69t28 69t70 28t70 -28t28 -69zM337 694q0 30 -19.5 50t-49.5 20t-49.5 -20t-19.5 -50t19 -49.5t50 -19.5t50 19.5t19 49.5z" />
    <glyph glyph-name="ae" unicode="&#xe6;" horiz-adv-x="869" 
d="M807 274q0 -18 -1 -24h-366q3 -105 47.5 -163.5t118.5 -58.5q48 0 80 11t72 36l21 -32q-46 -29 -84 -41.5t-94 -12.5q-52 0 -97 28t-73 82q-81 -110 -207 -110q-73 0 -121.5 38.5t-48.5 123.5q0 83 55 126t138 43q82 0 151 -39v78q0 75 -31.5 107.5t-101.5 32.5
q-68 0 -147 -41l-16 36q81 42 166 42q86 0 122 -35t40 -95q19 58 66 94t108 36q94 0 148.5 -70.5t54.5 -191.5zM766 286q-3 100 -45.5 155.5t-116.5 55.5q-71 0 -115.5 -54.5t-48.5 -156.5h326zM415 134q-16 48 -18 112q-69 38 -152 38q-68 0 -108 -34t-40 -97q0 -66 37 -97
t97 -31q110 0 184 109z" />
    <glyph glyph-name="ccedilla" unicode="&#xe7;" horiz-adv-x="492" 
d="M241 -9q-80 12 -132 80.5t-52 189.5q0 135 65 205t155 70t159 -58l-27 -33q-60 52 -135 52q-73 0 -122.5 -61.5t-49.5 -170.5q0 -111 48.5 -174t124.5 -63q77 0 135 55l26 -29q-67 -65 -163 -65h-2l-16 -39q19 12 51 12q24 0 43 -16.5t19 -46.5q0 -76 -107 -76
q-57 0 -106 32l14 21q40 -28 94 -28q34 0 52 13.5t18 36.5q0 18 -11.5 28.5t-29.5 10.5q-31 0 -52 -21l-26 9z" />
    <glyph glyph-name="egrave" unicode="&#xe8;" horiz-adv-x="538" 
d="M477 274q0 -12 -2 -24h-374q3 -104 49.5 -163t120.5 -59q82 0 157 47l20 -32q-45 -28 -85.5 -41t-96.5 -13q-86 0 -147.5 70t-61.5 205q0 125 60 198.5t152 73.5q95 0 151.5 -70.5t56.5 -191.5zM435 286q-3 100 -47 155.5t-119 55.5q-71 0 -117.5 -55t-50.5 -156h334z
M300 595h-36l-130 147h63z" />
    <glyph glyph-name="eacute" unicode="&#xe9;" horiz-adv-x="538" 
d="M477 274q0 -12 -2 -24h-374q3 -104 49.5 -163t120.5 -59q82 0 157 47l20 -32q-45 -28 -85.5 -41t-96.5 -13q-86 0 -147.5 70t-61.5 205q0 125 60 198.5t152 73.5q95 0 151.5 -70.5t56.5 -191.5zM435 286q-3 100 -47 155.5t-119 55.5q-71 0 -117.5 -55t-50.5 -156h334z
M406 742l-130 -147h-36l103 147h63z" />
    <glyph glyph-name="ecircumflex" unicode="&#xea;" horiz-adv-x="538" 
d="M477 274q0 -12 -2 -24h-374q3 -104 49.5 -163t120.5 -59q82 0 157 47l20 -32q-45 -28 -85.5 -41t-96.5 -13q-86 0 -147.5 70t-61.5 205q0 125 60 198.5t152 73.5q95 0 151.5 -70.5t56.5 -191.5zM435 286q-3 100 -47 155.5t-119 55.5q-71 0 -117.5 -55t-50.5 -156h334z
M425 589h-39l-117 113l-116 -113h-38l130 147h50z" />
    <glyph glyph-name="edieresis" unicode="&#xeb;" horiz-adv-x="538" 
d="M477 274q0 -12 -2 -24h-374q3 -104 49.5 -163t120.5 -59q82 0 157 47l20 -32q-45 -28 -85.5 -41t-96.5 -13q-86 0 -147.5 70t-61.5 205q0 125 60 198.5t152 73.5q95 0 151.5 -70.5t56.5 -191.5zM435 286q-3 100 -47 155.5t-119 55.5q-71 0 -117.5 -55t-50.5 -156h334z
M398 656q0 -14 -10 -23.5t-23 -9.5t-23 9.5t-10 23.5t10 24t23 10t23 -10t10 -24zM204 656q0 -13 -9.5 -23t-22.5 -10q-14 0 -24 9.5t-10 23.5t10 24t24 10q13 0 22.5 -10t9.5 -24z" />
    <glyph glyph-name="igrave" unicode="&#xec;" horiz-adv-x="226" 
d="M135 0h-44v525h44v-525zM133 595h-36l-130 147h63z" />
    <glyph glyph-name="iacute" unicode="&#xed;" horiz-adv-x="226" 
d="M135 0h-44v525h44v-525zM261 742l-130 -147h-36l103 147h63z" />
    <glyph glyph-name="icircumflex" unicode="&#xee;" horiz-adv-x="226" 
d="M135 0h-44v525h44v-525zM268 582h-39l-117 113l-116 -113h-38l130 147h50z" />
    <glyph glyph-name="idieresis" unicode="&#xef;" horiz-adv-x="226" 
d="M135 0h-44v525h44v-525zM243 651q0 -13 -9.5 -23t-23.5 -10t-23.5 10t-9.5 23q0 14 10 24t23 10t23 -10t10 -24zM49 651q0 -13 -9.5 -23t-22.5 -10q-14 0 -24 9.5t-10 23.5t10 24t24 10q13 0 22.5 -10t9.5 -24z" />
    <glyph glyph-name="eth" unicode="&#xf0;" horiz-adv-x="570" 
d="M513 301q0 -312 -231 -312q-98 0 -161.5 66.5t-63.5 179.5t61 180t154 67q157 0 202 -122q-25 175 -134 256l-49 -55l-31 25l45 50q-56 30 -120 36v39q81 -6 146 -44l33 35l30 -25l-30 -33q70 -51 109.5 -139t39.5 -204zM468 250q0 93 -52 143t-137 50
q-82 0 -129.5 -55.5t-47.5 -151.5q0 -98 50 -153t131 -55q86 0 135.5 59t49.5 163z" />
    <glyph glyph-name="ntilde" unicode="&#xf1;" horiz-adv-x="565" 
d="M483 0h-44v314q0 183 -151 183q-66 0 -112 -44t-46 -138v-315h-44v525h44v-89q19 48 63 74t104 26q87 0 136.5 -52.5t49.5 -161.5v-322zM446 702q-2 -51 -26.5 -78t-62.5 -27q-35 0 -75 30q-47 34 -62 38q-7 2 -15 2q-43 0 -53 -68h-36q2 51 26.5 78t62.5 27q35 0 75 -30
q32 -24 46 -32t31 -8q43 0 53 68h36z" />
    <glyph glyph-name="ograve" unicode="&#xf2;" horiz-adv-x="567" 
d="M510 265q0 -129 -64.5 -202.5t-163.5 -73.5q-98 0 -161.5 72t-63.5 201t64.5 201.5t163.5 72.5q98 0 161.5 -71.5t63.5 -199.5zM465 264q0 111 -50.5 172t-131.5 61t-131 -61t-50 -172q0 -112 50 -174t131 -62t131.5 62t50.5 174zM313 595h-36l-130 147h63z" />
    <glyph glyph-name="oacute" unicode="&#xf3;" horiz-adv-x="567" 
d="M510 265q0 -129 -64.5 -202.5t-163.5 -73.5q-98 0 -161.5 72t-63.5 201t64.5 201.5t163.5 72.5q98 0 161.5 -71.5t63.5 -199.5zM465 264q0 111 -50.5 172t-131.5 61t-131 -61t-50 -172q0 -112 50 -174t131 -62t131.5 62t50.5 174zM417 742l-130 -147h-36l103 147h63z" />
    <glyph glyph-name="ocircumflex" unicode="&#xf4;" horiz-adv-x="567" 
d="M510 265q0 -129 -64.5 -202.5t-163.5 -73.5q-98 0 -161.5 72t-63.5 201t64.5 201.5t163.5 72.5q98 0 161.5 -71.5t63.5 -199.5zM465 264q0 111 -50.5 172t-131.5 61t-131 -61t-50 -172q0 -112 50 -174t131 -62t131.5 62t50.5 174zM437 589h-39l-117 113l-116 -113h-38
l130 147h50z" />
    <glyph glyph-name="otilde" unicode="&#xf5;" horiz-adv-x="567" 
d="M510 265q0 -129 -64.5 -202.5t-163.5 -73.5q-98 0 -161.5 72t-63.5 201t64.5 201.5t163.5 72.5q98 0 161.5 -71.5t63.5 -199.5zM465 264q0 111 -50.5 172t-131.5 61t-131 -61t-50 -172q0 -112 50 -174t131 -62t131.5 62t50.5 174zM447 702q-2 -51 -26.5 -78t-62.5 -27
q-35 0 -75 30q-47 34 -62 38q-7 2 -15 2q-43 0 -53 -68h-36q2 51 26.5 78t62.5 27q35 0 75 -30q32 -24 46 -32t31 -8q43 0 53 68h36z" />
    <glyph glyph-name="odieresis" unicode="&#xf6;" horiz-adv-x="567" 
d="M510 265q0 -129 -64.5 -202.5t-163.5 -73.5q-98 0 -161.5 72t-63.5 201t64.5 201.5t163.5 72.5q98 0 161.5 -71.5t63.5 -199.5zM465 264q0 111 -50.5 172t-131.5 61t-131 -61t-50 -172q0 -112 50 -174t131 -62t131.5 62t50.5 174zM412 653q0 -13 -10 -23t-23 -10t-23 10
t-10 23q0 14 10 24t23 10t23 -10t10 -24zM218 653q0 -13 -9.5 -23t-22.5 -10q-14 0 -24 9.5t-10 23.5t10 24t24 10q13 0 22.5 -10t9.5 -24z" />
    <glyph glyph-name="divide" unicode="&#xf7;" 
d="M695 347l-149 -113q-4 -3 -6.5 -1t-0.5 6l69 88h-227v-255l88 70q4 1 6 -1.5t0 -5.5l-114 -150l-113 150q-3 3 -1 6t6 1l88 -70v255h-229l69 -88q2 -4 -0.5 -6t-6.5 1l-149 113l149 114q4 2 6.5 0t0.5 -6l-69 -88h229v261l-88 -70q-4 -2 -6 1t1 6l113 150l114 -150
q2 -3 0 -5.5t-6 -1.5l-88 70v-261h227l-69 88q-1 4 1 6t6 0z" />
    <glyph glyph-name="oslash" unicode="&#xf8;" horiz-adv-x="567" 
d="M510 265q0 -129 -64.5 -202.5t-163.5 -73.5q-59 0 -102 26l-33 -65h-39l42 83q-93 72 -93 229q0 129 64.5 201.5t163.5 72.5q57 0 103 -27l34 66h39l-42 -84q91 -73 91 -226zM372 475q-39 24 -89 24q-81 0 -131.5 -61.5t-50.5 -173.5q0 -128 67 -192zM467 264
q0 124 -67 188l-203 -402q37 -24 86 -24q81 0 132.5 62.5t51.5 175.5z" />
    <glyph glyph-name="ugrave" unicode="&#xf9;" horiz-adv-x="565" 
d="M479 0h-44v89q-16 -48 -60.5 -74t-105.5 -26q-88 0 -137.5 52.5t-49.5 161.5v322h44v-314q0 -183 151 -183q66 0 112 44t46 138v315h44v-525zM303 591h-36l-130 147h63z" />
    <glyph glyph-name="uacute" unicode="&#xfa;" horiz-adv-x="565" 
d="M479 0h-44v89q-16 -48 -60.5 -74t-105.5 -26q-88 0 -137.5 52.5t-49.5 161.5v322h44v-314q0 -183 151 -183q66 0 112 44t46 138v315h44v-525zM418 738l-130 -147h-36l103 147h63z" />
    <glyph glyph-name="ucircumflex" unicode="&#xfb;" horiz-adv-x="565" 
d="M479 0h-44v89q-16 -48 -60.5 -74t-105.5 -26q-88 0 -137.5 52.5t-49.5 161.5v322h44v-314q0 -183 151 -183q66 0 112 44t46 138v315h44v-525zM436 595h-39l-117 113l-116 -113h-38l130 147h50z" />
    <glyph glyph-name="udieresis" unicode="&#xfc;" horiz-adv-x="565" 
d="M479 0h-44v89q-16 -48 -60.5 -74t-105.5 -26q-88 0 -137.5 52.5t-49.5 161.5v322h44v-314q0 -183 151 -183q66 0 112 44t46 138v315h44v-525zM413 657q0 -13 -9.5 -23t-23.5 -10t-23.5 10t-9.5 23q0 14 10 24t23 10t23 -10t10 -24zM219 657q0 -13 -9.5 -23t-22.5 -10
q-14 0 -24 9.5t-10 23.5t10 24t24 10q13 0 22.5 -10t9.5 -24z" />
    <glyph glyph-name="yacute" unicode="&#xfd;" horiz-adv-x="514" 
d="M471 525l-263 -710h-44l70 188l-191 522h47l167 -472l167 472h47zM400 732l-130 -147h-36l103 147h63z" />
    <glyph glyph-name="thorn" unicode="&#xfe;" horiz-adv-x="553" 
d="M496 268q0 -137 -54.5 -208t-144.5 -71q-102 0 -167 88v-242l-44 -25v894l44 25v-283q68 90 173 90q89 0 141 -66.5t52 -201.5zM452 267q0 115 -42 172.5t-118 57.5q-95 0 -162 -96v-275q28 -44 71 -71t93 -27q76 0 117 59.5t41 179.5z" />
    <glyph glyph-name="ydieresis" unicode="&#xff;" horiz-adv-x="514" 
d="M471 525l-263 -710h-44l70 188l-191 522h47l167 -472l167 472h47zM390 651q0 -13 -10 -23t-23 -10t-23 10t-10 23q0 14 10 24t23 10t23 -10t10 -24zM196 651q0 -13 -9.5 -23t-22.5 -10q-14 0 -24 9.5t-10 23.5t10 24t24 10q13 0 22.5 -10t9.5 -24z" />
    <glyph glyph-name="dotlessi" unicode="&#x131;" horiz-adv-x="226" 
d="M135 0h-44v525h44v-525z" />
    <glyph glyph-name="Lslash" unicode="&#x141;" horiz-adv-x="549" 
d="M498 0h-392v258l-61 -53v52l61 54v389h46v-354l165 141v-53l-165 -140v-252h346v-42z" />
    <glyph glyph-name="lslash" unicode="&#x142;" horiz-adv-x="241" 
d="M194 356l-52 -44v-312h-44v277l-51 -45v54l51 45v373l44 25v-364l52 45v-54z" />
    <glyph glyph-name="OE" unicode="&#x152;" horiz-adv-x="1049" 
d="M1001 0h-404v167q-25 -83 -87.5 -130.5t-154.5 -47.5q-127 0 -206.5 99t-79.5 262t79.5 262t206.5 99q88 0 153 -48t89 -129v166h389v-42h-348v-264h210v-42h-210v-310h363v-42zM597 349q0 146 -68.5 233t-174.5 87q-105 0 -172 -86t-67 -232t68 -233t174 -87t173 86
t67 232z" />
    <glyph glyph-name="oe" unicode="&#x153;" horiz-adv-x="932" 
d="M871 274q0 -12 -2 -24h-368q3 -104 48.5 -163t118.5 -59q79 0 154 47l20 -32q-86 -54 -179 -54q-67 0 -118 44.5t-67 117.5q-18 -75 -70.5 -118.5t-128.5 -43.5q-96 0 -159 72.5t-63 200.5t64.5 201t160.5 73q76 0 129.5 -43.5t68.5 -117.5q15 73 66 117t120 44
q93 0 149 -71t56 -191zM829 286q-3 99 -46.5 155t-116.5 56q-69 0 -115 -55t-50 -156h328zM460 264q0 111 -50 172t-129 61t-129 -61t-50 -172q0 -112 50 -174t129 -62t129 62t50 174z" />
    <glyph glyph-name="Scaron" unicode="&#x160;" horiz-adv-x="576" 
d="M501 176q0 -85 -60.5 -136t-157.5 -51q-129 0 -225 84l31 34q90 -76 196 -76q74 0 122 37.5t48 105.5q0 58 -39.5 94t-143.5 74q-114 42 -155.5 83t-41.5 113q0 77 56.5 125t152.5 48q112 0 204 -67l-30 -36q-80 61 -177 61q-78 0 -119 -37t-41 -91q0 -55 35 -87.5
t141 -70.5q117 -44 160.5 -88t43.5 -119zM437 897l-130 -147h-50l-130 147h39l117 -113l116 113h38z" />
    <glyph glyph-name="scaron" unicode="&#x161;" horiz-adv-x="449" 
d="M388 129q0 -67 -47.5 -103.5t-122.5 -36.5q-91 0 -169 61l24 32q66 -55 146 -55q61 0 94 26.5t33 74.5q0 40 -28.5 67t-105.5 60q-85 36 -116.5 67t-31.5 88q0 55 42.5 90.5t110.5 35.5q97 0 160 -52l-25 -32q-59 46 -137 46q-50 0 -79 -24.5t-29 -60.5q0 -41 26 -65.5
t102 -56.5q84 -36 118.5 -69t34.5 -93zM376 742l-130 -147h-50l-130 147h39l117 -113l116 113h38z" />
    <glyph glyph-name="Ydieresis" unicode="&#x178;" horiz-adv-x="633" 
d="M578 700l-239 -412v-288h-46v287l-238 413h52l210 -366l210 366h51zM445 801q0 -13 -9.5 -23t-23.5 -10t-23.5 10t-9.5 23q0 14 10 24t23 10t23 -10t10 -24zM251 801q0 -13 -9.5 -23t-22.5 -10q-14 0 -24 9.5t-10 23.5t10 24t24 10q13 0 22.5 -10t9.5 -24z" />
    <glyph glyph-name="Zcaron" unicode="&#x17d;" horiz-adv-x="606" 
d="M535 0h-474v40l422 620h-402v40h454v-40l-422 -620h422v-40zM459 892l-130 -147h-50l-130 147h39l117 -113l116 113h38z" />
    <glyph glyph-name="zcaron" unicode="&#x17e;" horiz-adv-x="491" 
d="M423 0h-366v33l316 455h-288v37h338v-33l-315 -455h315v-37zM408 742l-130 -147h-50l-130 147h39l117 -113l116 113h38z" />
    <glyph glyph-name="florin" unicode="&#x192;" horiz-adv-x="370" 
d="M316 659q-27 12 -67 12q-74 0 -74 -81v-65h123v-37h-123v-653l-44 -25v678h-78v37h78v63q0 64 32 93.5t84 29.5q39 0 69 -10v-42z" />
    <glyph glyph-name="circumflex" unicode="&#x2c6;" horiz-adv-x="500" 
d="M405 595h-39l-117 113l-116 -113h-38l130 147h50z" />
    <glyph glyph-name="caron" unicode="&#x2c7;" horiz-adv-x="500" 
d="M405 742l-130 -147h-50l-130 147h39l117 -113l116 113h38z" />
    <glyph glyph-name="breve" unicode="&#x2d8;" horiz-adv-x="500" 
d="M406 742q-5 -70 -46 -109t-111 -39q-66 0 -108 39.5t-47 108.5h36q12 -114 121 -114q51 0 82 29t37 85h36z" />
    <glyph glyph-name="dotaccent" unicode="&#x2d9;" horiz-adv-x="500" 
d="M283 662q0 -14 -9.5 -23.5t-23.5 -9.5t-23.5 9.5t-9.5 23.5t10 24t23 10t23 -10t10 -24z" />
    <glyph glyph-name="ring" unicode="&#x2da;" horiz-adv-x="500" 
d="M348 694q0 -41 -28 -69t-70 -28t-70 28t-28 69t28 69t70 28t70 -28t28 -69zM319 694q0 30 -19.5 50t-49.5 20t-49.5 -20t-19.5 -50t19 -49.5t50 -19.5t50 19.5t19 49.5z" />
    <glyph glyph-name="ogonek" unicode="&#x2db;" horiz-adv-x="500" 
d="M364 -159q-64 -34 -114 -34q-46 0 -70 22t-24 61q0 31 24 60.5t60 49.5h32q-79 -53 -79 -105q0 -28 16.5 -44t45.5 -16q47 0 100 25z" />
    <glyph glyph-name="tilde" unicode="&#x2dc;" horiz-adv-x="500" 
d="M415 702q-2 -51 -26.5 -78t-62.5 -27q-35 0 -75 30q-47 34 -62 38q-7 2 -15 2q-43 0 -53 -68h-36q2 51 26.5 78t62.5 27q35 0 75 -30q32 -24 46 -32t31 -8q43 0 53 68h36z" />
    <glyph glyph-name="hungarumlaut" unicode="&#x2dd;" horiz-adv-x="500" 
d="M421 742l-123 -147h-34l98 147h59zM251 742l-122 -147h-34l97 147h59z" />
    <glyph glyph-name="Delta" unicode="&#x394;" horiz-adv-x="613" 
d="M552 326h-423l69 -85q2 -3 -1.5 -5.5t-7.5 0.5l-155 111l155 112q4 2 7.5 -0.5t1.5 -5.5l-69 -85h423v-42z" />
    <glyph glyph-name="Omega" unicode="&#x3a9;" horiz-adv-x="366" 
d="M294 560q3 -4 0.5 -7.5t-5.5 -1.5l-85 69v-620h-42v620l-85 -69q-3 -2 -5.5 1.5t0.5 7.5l111 155z" />
    <glyph glyph-name="pi" unicode="&#x3c0;" horiz-adv-x="836" 
d="M779 350q0 -158 -102.5 -259.5t-258.5 -101.5t-258.5 101.5t-102.5 259.5t102.5 259.5t258.5 101.5t258.5 -101.5t102.5 -259.5zM749 350q0 146 -94 239.5t-237 93.5t-237 -93.5t-94 -239.5t94 -239.5t237 -93.5t237 93.5t94 239.5zM577 431q0 -59 -37.5 -90.5
t-103.5 -31.5h-94v-168h-32v408h135q132 0 132 -118zM546 431q0 90 -104 90h-100v-182h93q111 0 111 92z" />
    <glyph glyph-name="endash" unicode="&#x2013;" horiz-adv-x="417" 
d="M365 343h-314v42h314v-42z" />
    <glyph glyph-name="emdash" unicode="&#x2014;" horiz-adv-x="571" 
d="M520 343h-469v42h469v-42z" />
    <glyph glyph-name="quoteleft" unicode="&#x2018;" horiz-adv-x="218" 
d="M144 700l-18 -191h-60l46 191h32z" />
    <glyph glyph-name="quoteright" unicode="&#x2019;" horiz-adv-x="218" 
d="M152 700l-46 -191h-31l18 191h59z" />
    <glyph glyph-name="quotesinglbase" unicode="&#x201a;" horiz-adv-x="218" 
d="M149 91l-46 -191h-31l17 191h60z" />
    <glyph glyph-name="quotedblleft" unicode="&#x201c;" horiz-adv-x="406" 
d="M331 700l-17 -191h-60l46 191h31zM144 700l-18 -191h-60l46 191h32z" />
    <glyph glyph-name="quotedblright" unicode="&#x201d;" horiz-adv-x="406" 
d="M340 700l-46 -191h-31l17 191h60zM152 700l-46 -191h-31l18 191h59z" />
    <glyph glyph-name="quotedblbase" unicode="&#x201e;" horiz-adv-x="406" 
d="M336 91l-46 -191h-31l18 191h59zM149 91l-46 -191h-31l17 191h60z" />
    <glyph glyph-name="dagger" unicode="&#x2020;" horiz-adv-x="539" 
d="M488 411h-198v-511h-41v511h-198v40h198v249h41v-249h198v-40z" />
    <glyph glyph-name="daggerdbl" unicode="&#x2021;" horiz-adv-x="539" 
d="M488 149h-198v-249h-41v249h-198v39h198v224h-198v39h198v249h41v-249h198v-39h-198v-224h198v-39z" />
    <glyph glyph-name="bullet" unicode="&#x2022;" horiz-adv-x="322" 
d="M238 366q0 -32 -22.5 -54.5t-54.5 -22.5t-54.5 22.5t-22.5 54.5t22.5 55t54.5 23t54.5 -23t22.5 -55z" />
    <glyph glyph-name="ellipsis" unicode="&#x2026;" horiz-adv-x="635" 
d="M567 32q0 -16 -11.5 -27t-26.5 -11q-16 0 -27 11t-11 27t11 28t27 12q15 0 26.5 -12t11.5 -28zM355 32q0 -16 -11.5 -27t-26.5 -11q-16 0 -27 11t-11 27t11 28t27 12q15 0 26.5 -12t11.5 -28zM143 32q0 -16 -11.5 -27t-26.5 -11q-16 0 -27 11t-11 27t11 28t27 12
q15 0 26.5 -12t11.5 -28z" />
    <glyph glyph-name="perthousand" unicode="&#x2030;" horiz-adv-x="1280" 
d="M369 502q0 -95 -42 -151.5t-113 -56.5q-70 0 -111.5 56t-41.5 151q0 97 41.5 153.5t112.5 56.5q72 0 113 -56t41 -153zM693 700l-435 -700h-44l435 700h44zM1233 198q0 -96 -42 -152.5t-113 -56.5q-70 0 -111 56t-41 152t41 152.5t113 56.5t112.5 -56t40.5 -152zM846 198
q0 -96 -41.5 -152.5t-112.5 -56.5t-112 56t-41 152t41.5 152.5t112.5 56.5q72 0 112.5 -56t40.5 -152zM328 501q0 80 -30.5 127t-82.5 47q-53 0 -83 -46t-30 -127q0 -80 30.5 -126t82.5 -46t82.5 47t30.5 124zM1192 197q0 80 -30 126.5t-83 46.5q-52 0 -82 -46t-30 -126
t30 -126.5t83 -46.5q52 0 82 47.5t30 124.5zM805 197q0 80 -30 126.5t-83 46.5q-52 0 -82 -46t-30 -126t30 -126.5t83 -46.5q52 0 82 47t30 125z" />
    <glyph glyph-name="guilsinglleft" unicode="&#x2039;" horiz-adv-x="343" 
d="M289 0h-50l-203 262l203 263h50l-203 -262z" />
    <glyph glyph-name="guilsinglright" unicode="&#x203a;" horiz-adv-x="343" 
d="M54 0l203 263l-203 262h50l203 -263l-203 -262h-50z" />
    <glyph glyph-name="fraction" unicode="&#x2044;" horiz-adv-x="454" 
d="M498 700l-493 -700h-49l493 700h49z" />
    <glyph glyph-name="Euro" unicode="&#x20ac;" horiz-adv-x="588" 
d="M117 265q15 -111 71.5 -173t146.5 -62q91 0 161 84l32 -29q-78 -96 -194 -96q-124 0 -195.5 95.5t-71.5 264.5t74 265.5t195 96.5q120 0 185 -89l-35 -29q-32 40 -66 58.5t-85 18.5q-85 0 -142 -60t-75 -168h275v-40h-279q-2 -34 -2 -51q0 -16 2 -46h279v-40h-276z" />
    <glyph glyph-name="trademark" unicode="&#x2122;" horiz-adv-x="787" 
d="M306 674h-125v-382h-29v382h-126v26h280v-26zM733 292h-27v347l-147 -354h-2l-146 354v-347h-27v408h33l142 -350l142 350h32v-408z" />
    <glyph glyph-name="partialdiff" unicode="&#x2202;" horiz-adv-x="366" 
d="M294 140l-111 -155l-111 155q-3 4 -0.5 7.5t5.5 1.5l85 -69v540l-85 -69q-3 -2 -5.5 1.5t0.5 7.5l111 155l111 -155q3 -4 0.5 -7.5t-5.5 -1.5l-85 69v-540l85 69q3 2 5.5 -1.5t-0.5 -7.5z" />
    <glyph glyph-name="product" unicode="&#x220f;" 
d="M695 347l-149 -113q-4 -3 -6.5 -1t-0.5 6l69 88h-227v-255l88 70q4 1 6 -1.5t0 -5.5l-114 -150l-113 150q-3 3 -1 6t6 1l88 -70v255h-229l69 -88q2 -4 -0.5 -6t-6.5 1l-149 113l149 114q4 2 6.5 0t0.5 -6l-69 -88h229v261l-88 -70q-4 -2 -6 1t1 6l113 150l114 -150
q2 -3 0 -5.5t-6 -1.5l-88 70v-261h227l-69 88q-1 4 1 6t6 0z" />
    <glyph glyph-name="summation" unicode="&#x2211;" 
d="M695 347l-149 -113q-4 -3 -6.5 -1t-0.5 6l69 88h-227v-255l88 70q4 1 6 -1.5t0 -5.5l-114 -150l-113 150q-3 3 -1 6t6 1l88 -70v255h-229l69 -88q2 -4 -0.5 -6t-6.5 1l-149 113l149 114q4 2 6.5 0t0.5 -6l-69 -88h229v261l-88 -70q-4 -2 -6 1t1 6l113 150l114 -150
q2 -3 0 -5.5t-6 -1.5l-88 70v-261h227l-69 88q-1 4 1 6t6 0z" />
    <glyph glyph-name="minus" unicode="&#x2212;" 
d="M695 347l-149 -113q-4 -3 -6.5 -1t-0.5 6l69 88h-227v-255l88 70q4 1 6 -1.5t0 -5.5l-114 -150l-113 150q-3 3 -1 6t6 1l88 -70v255h-229l69 -88q2 -4 -0.5 -6t-6.5 1l-149 113l149 114q4 2 6.5 0t0.5 -6l-69 -88h229v261l-88 -70q-4 -2 -6 1t1 6l113 150l114 -150
q2 -3 0 -5.5t-6 -1.5l-88 70v-261h227l-69 88q-1 4 1 6t6 0z" />
    <glyph glyph-name="radical" unicode="&#x221a;" horiz-adv-x="554" 
d="M508 700l-264 -700h-42l-156 340h47l130 -288l240 648h45z" />
    <glyph glyph-name="infinity" unicode="&#x221e;" 
d="M695 347l-149 -113q-4 -3 -6.5 -1t-0.5 6l69 88h-227v-255l88 70q4 1 6 -1.5t0 -5.5l-114 -150l-113 150q-3 3 -1 6t6 1l88 -70v255h-229l69 -88q2 -4 -0.5 -6t-6.5 1l-149 113l149 114q4 2 6.5 0t0.5 -6l-69 -88h229v261l-88 -70q-4 -2 -6 1t1 6l113 150l114 -150
q2 -3 0 -5.5t-6 -1.5l-88 70v-261h227l-69 88q-1 4 1 6t6 0z" />
    <glyph glyph-name="integral" unicode="&#x222b;" horiz-adv-x="553" 
d="M467 0h-44v79q-71 -90 -172 -90q-89 0 -141.5 66.5t-52.5 201.5q0 137 54.5 208t144.5 71q99 0 167 -88v77h44v-525zM423 124v275q-27 44 -70 71t-93 27q-159 0 -159 -239q0 -115 42.5 -172.5t118.5 -57.5q94 0 161 96z" />
    <glyph glyph-name="approxequal" unicode="&#x2248;" horiz-adv-x="366" 
d="M294 140l-111 -155l-111 155q-3 4 -0.5 7.5t5.5 1.5l85 -69v620h42v-620l85 69q3 2 5.5 -1.5t-0.5 -7.5z" />
    <glyph glyph-name="notequal" unicode="&#x2260;" 
d="M695 347l-149 -113q-4 -3 -6.5 -1t-0.5 6l69 88h-227v-255l88 70q4 1 6 -1.5t0 -5.5l-114 -150l-113 150q-3 3 -1 6t6 1l88 -70v255h-229l69 -88q2 -4 -0.5 -6t-6.5 1l-149 113l149 114q4 2 6.5 0t0.5 -6l-69 -88h229v261l-88 -70q-4 -2 -6 1t1 6l113 150l114 -150
q2 -3 0 -5.5t-6 -1.5l-88 70v-261h227l-69 88q-1 4 1 6t6 0z" />
    <glyph glyph-name="lessequal" unicode="&#x2264;" 
d="M695 347l-149 -113q-4 -3 -6.5 -1t-0.5 6l69 88h-227v-255l88 70q4 1 6 -1.5t0 -5.5l-114 -150l-113 150q-3 3 -1 6t6 1l88 -70v255h-229l69 -88q2 -4 -0.5 -6t-6.5 1l-149 113l149 114q4 2 6.5 0t0.5 -6l-69 -88h229v261l-88 -70q-4 -2 -6 1t1 6l113 150l114 -150
q2 -3 0 -5.5t-6 -1.5l-88 70v-261h227l-69 88q-1 4 1 6t6 0z" />
    <glyph glyph-name="greaterequal" unicode="&#x2265;" 
d="M695 347l-149 -113q-4 -3 -6.5 -1t-0.5 6l69 88h-227v-255l88 70q4 1 6 -1.5t0 -5.5l-114 -150l-113 150q-3 3 -1 6t6 1l88 -70v255h-229l69 -88q2 -4 -0.5 -6t-6.5 1l-149 113l149 114q4 2 6.5 0t0.5 -6l-69 -88h229v261l-88 -70q-4 -2 -6 1t1 6l113 150l114 -150
q2 -3 0 -5.5t-6 -1.5l-88 70v-261h227l-69 88q-1 4 1 6t6 0z" />
    <glyph glyph-name="lozenge" unicode="&#x25ca;" 
d="M695 347l-149 -113q-4 -3 -6.5 -1t-0.5 6l69 88h-227v-255l88 70q4 1 6 -1.5t0 -5.5l-114 -150l-113 150q-3 3 -1 6t6 1l88 -70v255h-229l69 -88q2 -4 -0.5 -6t-6.5 1l-149 113l149 114q4 2 6.5 0t0.5 -6l-69 -88h229v261l-88 -70q-4 -2 -6 1t1 6l113 150l114 -150
q2 -3 0 -5.5t-6 -1.5l-88 70v-261h227l-69 88q-1 4 1 6t6 0z" />
    <glyph glyph-name="apple" unicode="&#xf8ff;" 
d="M695 347l-149 -113q-4 -3 -6.5 -1t-0.5 6l69 88h-227v-255l88 70q4 1 6 -1.5t0 -5.5l-114 -150l-113 150q-3 3 -1 6t6 1l88 -70v255h-229l69 -88q2 -4 -0.5 -6t-6.5 1l-149 113l149 114q4 2 6.5 0t0.5 -6l-69 -88h229v261l-88 -70q-4 -2 -6 1t1 6l113 150l114 -150
q2 -3 0 -5.5t-6 -1.5l-88 70v-261h227l-69 88q-1 4 1 6t6 0z" />
    <glyph glyph-name="fi" unicode="&#xfb01;" horiz-adv-x="563" 
d="M482 672q0 -13 -9.5 -22.5t-21.5 -9.5q-14 0 -23.5 9.5t-9.5 22.5q0 14 9.5 23t23.5 9q12 0 21.5 -9.5t9.5 -22.5zM302 673q-26 12 -62 12q-71 0 -71 -79v-81h122v-37h-122v-488h-44v488h-78v37h78v77q0 123 112 123q36 0 66 -10zM472 0h-44v525h44v-525z" />
    <glyph glyph-name="fl" unicode="&#xfb02;" horiz-adv-x="563" 
d="M472 0h-44v704l44 25v-729zM302 673q-26 12 -62 12q-71 0 -71 -79v-81h122v-37h-122v-488h-44v488h-78v37h78v77q0 123 112 123q36 0 66 -10z" />
    <glyph glyph-name="NUL" horiz-adv-x="0" 
 />
    </font>
</defs>
</svg>
